<svg xmlns="http://www.w3.org/2000/svg" width="39.554" height="37.907" viewBox="0 0 39.554 37.907">
  <path id="github" d="M19.777.5A19.606,19.606,0,0,0,0,19.934,19.467,19.467,0,0,0,13.523,38.373c.989.183,1.351-.419,1.351-.934,0-.461-.016-1.684-.025-3.3-5.5,1.172-6.662-2.607-6.662-2.607a5.181,5.181,0,0,0-2.2-2.843c-1.791-1.2.138-1.18.138-1.18a4.137,4.137,0,0,1,3.029,2c1.763,2.972,4.629,2.113,5.76,1.617a4.115,4.115,0,0,1,1.253-2.6c-4.392-.486-9.008-2.157-9.008-9.6a7.425,7.425,0,0,1,2.035-5.215,6.8,6.8,0,0,1,.173-5.144s1.656-.521,5.439,1.993a18.962,18.962,0,0,1,9.889,0c3.758-2.513,5.414-1.993,5.414-1.993a6.987,6.987,0,0,1,.2,5.144,7.455,7.455,0,0,1,2.027,5.215c0,7.466-4.623,9.109-9.023,9.587a4.611,4.611,0,0,1,1.335,3.6c0,2.6-.025,4.69-.025,5.322,0,.509.346,1.117,1.36.923A19.408,19.408,0,0,0,39.554,19.934,19.609,19.609,0,0,0,19.777.5Z" transform="translate(0 -0.5)" fill="#fff"/>
</svg>
