<svg xmlns="http://www.w3.org/2000/svg" width="38.519" height="38.519" viewBox="0 0 38.519 38.519">
  <path id="linkedin_7_" data-name="linkedin (7)" d="M19.259,0A19.259,19.259,0,1,0,38.519,19.259,19.261,19.261,0,0,0,19.259,0Zm-5.6,29.115H8.972V15h4.691ZM11.318,13.076h-.031A2.445,2.445,0,1,1,11.349,8.2a2.446,2.446,0,1,1-.031,4.876ZM30.576,29.115h-4.69V21.565c0-1.9-.679-3.191-2.376-3.191A2.568,2.568,0,0,0,21.1,20.09a3.212,3.212,0,0,0-.154,1.145v7.881h-4.69s.061-12.788,0-14.112h4.69v2a4.657,4.657,0,0,1,4.227-2.329c3.086,0,5.4,2.017,5.4,6.351Zm0,0" fill="#fff"/>
</svg>
