<svg xmlns="http://www.w3.org/2000/svg" width="99.998" height="77.708" viewBox="0 0 99.998 77.708">
  <g id="Groupe_141" data-name="Groupe 141" transform="translate(0 -11.151)">
    <path id="Tracé_485" data-name="Tracé 485" d="M53.13,11.4a2.83,2.83,0,0,0-3,.43L25.66,33H2.83A2.83,2.83,0,0,0,0,35.8V63.89a2.83,2.83,0,0,0,2.83,2.83H25.3L50.1,88.17A2.83,2.83,0,0,0,54.78,86V14a2.83,2.83,0,0,0-1.65-2.6Zm10,20.5a2.83,2.83,0,0,0-.87,3.91,26.72,26.72,0,0,1,.11,28.55,2.83,2.83,0,1,0,4.8,3,32.38,32.38,0,0,0-.14-34.57,2.83,2.83,0,0,0-3.87-.89ZM86.85,12.56a2.832,2.832,0,0,0-4.43,3.53,54.69,54.69,0,0,1,.14,68A2.83,2.83,0,1,0,87,87.58a60.35,60.35,0,0,0-.15-75.02Zm-9.54,9.68a2.831,2.831,0,0,0-4.55,3.37,41.26,41.26,0,0,1,.13,48.92,2.83,2.83,0,1,0,4.56,3.35A46.92,46.92,0,0,0,77.31,22.24Z" fill="#72767d"/>
  </g>
</svg>
